# xmcd
#
# Track frame offsets:
#	182
#	24775
#	49465
#	73870
#	99972
#	124490
#	150907
#	175920
#	201357
#	226895
#
# Disc length: 3361 seconds
#
# Revision: 1
# Processed by: cddbd v1.5.2PL0 Copyright (c) Steve Scherf et al.
# Submitted via: audiograbber 1.83.01
#
DISCID=800d1f0a
DTITLE=Blues Jam Session 1 - Lick Library Ultimate Blues
DYEAR=2005
DGENRE=Blues
TTITLE0=Blues For Lisa
TTITLE1=South Sea Strut
TTITLE2=Level 43
TTITLE3=Midnight Music
TTITLE4=Shop Spend Buy
TTITLE5=Clapping With Eric
TTITLE6=Sliding In
TTITLE7=Blow Chunks
TTITLE8=Rhodes To Nowhere
TTITLE9=Born Under A Bad Sign
EXTD=Instructional CD Disc, Jam Tracks. Music minus the guitar.
EXTT0=
EXTT1=
EXTT2=
EXTT3=
EXTT4=
EXTT5=
EXTT6=
EXTT7=
EXTT8=
EXTT9=
PLAYORDER=
